<svg xmlns="http://www.w3.org/2000/svg" width="1200" height="820" viewBox="0 0 1200 820" role="img" aria-labelledby="title desc">
  <title id="title">Warm splash illustration</title>
  <desc id="desc">Abstract warm tabletop with cup and pastry shapes for splash screen background.</desc>
  <defs>
    <linearGradient id="bg" x1="0" y1="0" x2="1" y2="1">
      <stop offset="0" stop-color="#f9e5d1"/>
      <stop offset="1" stop-color="#d98656"/>
    </linearGradient>
    <radialGradient id="light" cx="0.2" cy="0.15" r="0.8">
      <stop offset="0" stop-color="#fff4e8" stop-opacity="0.95"/>
      <stop offset="1" stop-color="#fff4e8" stop-opacity="0"/>
    </radialGradient>
  </defs>

  <rect width="1200" height="820" fill="url(#bg)"/>
  <rect width="1200" height="820" fill="url(#light)"/>

  <g opacity="0.25" fill="#8f4b2a">
    <circle cx="1060" cy="120" r="170"/>
    <circle cx="115" cy="690" r="220"/>
  </g>

  <g transform="translate(680 350)">
    <ellipse cx="180" cy="260" rx="180" ry="42" fill="#b4683f" opacity="0.35"/>
    <path d="M40 90h280c0 135-62 210-140 210S40 225 40 90z" fill="#fff7ef"/>
    <path d="M300 115h50c42 0 75 33 75 75s-33 75-75 75h-50" fill="none" stroke="#fff7ef" stroke-width="28" stroke-linecap="round"/>
    <path d="M98 170l52-48 36 30 56-72 78 82" fill="none" stroke="#b6572f" stroke-width="24" stroke-linecap="round" stroke-linejoin="round"/>
  </g>

  <g transform="translate(120 120)">
    <ellipse cx="240" cy="370" rx="230" ry="52" fill="#a55a35" opacity="0.3"/>
    <ellipse cx="240" cy="300" rx="210" ry="100" fill="#f4c9aa"/>
    <ellipse cx="240" cy="280" rx="160" ry="70" fill="#fbe6d4"/>
    <path d="M120 262c50-24 190-24 240 0" fill="none" stroke="#e2a177" stroke-width="18" stroke-linecap="round"/>
  </g>
</svg>
